<?xml version="1.0" standalone="no"?>
<!DOCTYPE svg PUBLIC "-//W3C//DTD SVG 20010904//EN"
 "http://www.w3.org/TR/2001/REC-SVG-20010904/DTD/svg10.dtd">
<svg version="1.0" xmlns="http://www.w3.org/2000/svg"
 width="1080.000000pt" height="1080.000000pt" viewBox="0 0 1080.000000 1080.000000"
 preserveAspectRatio="xMidYMid meet">
<metadata>
Created by potrace 1.11, written by Peter Selinger 2001-2013
</metadata>
<g transform="translate(0.000000,1080.000000) scale(0.100000,-0.100000)"
fill="#000000" stroke="none">
<path d="M5337 10794 c-1 -1 -78 -5 -172 -8 -93 -4 -183 -9 -200 -11 -16 -2
-61 -6 -100 -9 -38 -3 -79 -8 -90 -10 -11 -2 -47 -7 -80 -10 -77 -9 -126 -16
-145 -21 -8 -2 -35 -7 -60 -10 -62 -9 -308 -60 -405 -85 -44 -11 -87 -22 -95
-24 -134 -34 -476 -148 -575 -191 -16 -8 -70 -30 -120 -50 -241 -98 -587 -283
-843 -451 -127 -84 -368 -257 -433 -312 -268 -225 -550 -498 -721 -699 -135
-159 -418 -537 -418 -558 0 -3 -15 -27 -33 -53 -112 -161 -324 -561 -422 -797
-20 -49 -43 -103 -50 -120 -44 -102 -178 -508 -200 -609 -5 -22 -24 -101 -31
-126 -8 -29 -45 -205 -50 -239 -3 -18 -8 -43 -10 -55 -3 -11 -7 -37 -10 -56
-2 -19 -7 -46 -9 -60 -10 -49 -21 -126 -30 -210 -3 -30 -7 -71 -10 -90 -28
-234 -28 -829 0 -1070 2 -19 6 -62 10 -95 7 -66 11 -99 26 -195 6 -36 12 -76
14 -90 6 -40 55 -281 67 -325 5 -22 12 -48 14 -57 2 -10 6 -26 8 -36 43 -192
156 -527 262 -776 275 -646 653 -1207 1154 -1706 186 -186 214 -212 355 -329
135 -113 131 -110 205 -164 36 -26 74 -55 85 -64 72 -60 413 -277 575 -367
102 -56 376 -189 475 -231 50 -20 104 -43 120 -51 184 -80 688 -234 880 -267
32 -6 124 -24 165 -32 32 -7 201 -32 265 -40 28 -4 61 -8 75 -11 122 -20 966
-28 1130 -11 192 20 294 35 505 72 74 14 185 37 240 51 33 9 68 18 78 19 152
30 614 189 810 279 32 14 60 26 62 26 12 0 285 137 395 198 459 254 837 538
1211 912 326 325 557 619 816 1035 197 317 419 810 531 1180 36 118 96 343
107 400 5 22 10 45 11 50 2 6 6 24 9 40 3 17 8 37 10 45 2 8 7 31 10 50 3 19
8 49 12 65 3 17 7 39 9 50 1 11 7 54 14 95 19 126 19 132 30 225 5 50 12 115
16 145 9 85 12 747 4 820 -5 36 -11 102 -14 147 -4 45 -8 90 -10 100 -2 10 -7
43 -10 74 -4 31 -8 65 -10 75 -2 11 -7 39 -10 64 -3 25 -8 56 -11 70 -3 14 -8
43 -11 65 -3 22 -14 77 -25 122 -10 44 -21 94 -24 110 -3 15 -12 55 -20 88 -9
33 -17 68 -19 77 -18 70 -56 198 -102 337 -141 426 -350 858 -600 1239 -79
120 -245 355 -264 372 -3 3 -32 39 -65 80 -114 142 -201 237 -394 430 -272
271 -518 473 -806 663 -55 37 -104 70 -110 74 -10 9 -86 54 -240 143 -111 64
-394 204 -535 263 -176 75 -490 187 -563 202 -9 2 -21 6 -25 9 -26 16 -475
120 -602 140 -19 3 -78 12 -130 20 -113 18 -153 23 -262 31 -46 4 -94 9 -108
11 -35 6 -478 22 -483 18z m378 -1179 c100 -7 121 -9 285 -31 88 -12 181 -28
285 -50 38 -9 78 -17 87 -19 10 -2 62 -16 115 -30 1059 -283 1977 -975 2544
-1915 139 -232 283 -540 374 -800 36 -105 92 -292 101 -340 3 -14 8 -34 11
-45 8 -25 6 -15 37 -166 14 -69 28 -147 32 -175 3 -27 8 -57 10 -68 3 -18 10
-72 19 -166 11 -105 19 -286 19 -430 0 -158 -10 -377 -18 -402 -3 -7 -7 -45
-11 -83 -3 -39 -7 -81 -9 -95 -3 -14 -10 -59 -16 -100 -6 -41 -15 -91 -20
-110 -5 -19 -11 -51 -14 -70 -9 -60 -73 -300 -111 -420 -80 -250 -234 -599
-349 -794 -25 -43 -46 -80 -46 -82 0 -3 -8 -17 -19 -32 -10 -15 -51 -76 -91
-137 -64 -97 -197 -280 -225 -311 -5 -6 -28 -33 -50 -60 -218 -267 -606 -622
-840 -770 -16 -10 -32 -21 -35 -24 -15 -19 -259 -167 -382 -233 -37 -20 -75
-41 -85 -46 -92 -53 -450 -200 -608 -251 -102 -32 -260 -77 -305 -86 -14 -3
-45 -10 -70 -15 -77 -18 -83 -19 -160 -34 -41 -8 -93 -17 -115 -20 -22 -2 -49
-6 -60 -9 -11 -2 -51 -7 -90 -11 -38 -4 -77 -9 -86 -10 -118 -23 -679 -23
-839 0 -14 2 -52 6 -85 10 -68 7 -87 10 -240 36 -549 91 -1149 337 -1635 668
-52 35 -101 70 -108 78 -7 7 -16 13 -20 13 -4 0 -19 10 -34 23 -15 12 -42 33
-59 47 -233 179 -511 454 -710 703 -68 85 -243 332 -286 402 -108 179 -213
377 -273 515 -18 41 -38 89 -46 105 -72 160 -210 606 -230 744 -3 20 -7 41 -9
48 -3 10 -15 80 -41 233 -34 211 -48 609 -30 890 4 69 9 127 11 130 1 3 6 37
10 75 6 67 13 117 20 155 2 10 7 40 11 67 5 26 9 50 9 53 2 8 17 83 21 103 2
10 5 26 8 35 3 9 7 29 10 43 2 15 16 71 31 125 127 472 335 919 608 1314 465
673 1096 1186 1847 1505 166 70 464 174 549 190 9 1 36 8 61 15 51 14 43 12
175 40 55 11 116 23 135 26 19 3 62 9 95 14 33 5 85 12 115 16 30 3 66 7 80
10 14 2 77 7 140 10 63 4 116 8 118 9 6 5 395 -3 487 -10z"/>
<path d="M5315 8458 c-71 -9 -182 -26 -210 -32 -234 -51 -412 -121 -610 -239
-451 -270 -774 -706 -900 -1217 -13 -52 -26 -117 -30 -143 -4 -27 -8 -56 -10
-65 -7 -40 -18 -205 -16 -244 1 -17 38 -18 629 -18 l628 0 0 38 c3 135 69 303
164 416 143 170 349 260 575 251 110 -4 174 -20 280 -70 187 -89 338 -283 379
-487 26 -128 24 -141 -37 -206 -29 -31 -74 -79 -99 -107 -26 -27 -61 -66 -80
-86 -18 -20 -73 -80 -123 -134 -49 -54 -95 -103 -100 -109 -20 -22 -303 -328
-351 -381 -15 -16 -69 -76 -121 -132 -52 -56 -102 -110 -111 -121 -14 -16 -85
-93 -237 -257 -131 -141 -222 -240 -235 -255 -8 -10 -62 -68 -120 -131 -58
-62 -125 -136 -150 -163 -25 -27 -61 -66 -80 -86 -19 -20 -67 -72 -107 -116
-39 -43 -84 -93 -100 -109 -39 -43 -206 -224 -239 -260 -15 -16 -70 -77 -123
-134 -53 -57 -107 -116 -120 -130 -57 -63 -209 -227 -240 -260 -18 -20 -54
-59 -80 -87 -25 -28 -86 -94 -136 -148 -49 -54 -92 -102 -93 -107 -2 -5 880
-8 2175 -7 l2178 3 2 677 1 678 -624 2 -624 3 43 45 c64 69 238 258 293 319
27 29 65 70 84 91 19 21 71 77 115 125 44 48 94 102 110 119 56 61 210 228
242 265 18 20 33 39 33 42 0 3 -15 22 -32 41 -42 44 -227 245 -293 317 -27 30
-59 65 -70 76 -44 47 -145 157 -230 250 -49 55 -118 128 -151 165 -34 36 -80
85 -102 110 l-40 45 624 3 624 2 -5 98 c-8 155 -22 249 -62 400 -40 156 -70
235 -150 397 -39 79 -158 270 -188 301 -5 6 -28 33 -49 60 -65 80 -226 235
-311 299 -44 33 -81 63 -83 68 -2 4 -7 7 -12 7 -5 0 -35 18 -68 39 -122 81
-430 214 -542 234 -14 3 -43 10 -65 15 -22 6 -60 14 -85 17 -24 4 -47 8 -50
10 -25 16 -387 25 -485 13z"/>
</g>
</svg>
